<svg width="48" height="48" viewBox="0 0 48 48" fill="none" xmlns="http://www.w3.org/2000/svg">
<g clip-path="url(#clip0_2088_163)">
<path d="M24 31.5C28.1421 31.5 31.5 28.1421 31.5 24C31.5 19.8579 28.1421 16.5 24 16.5C19.8579 16.5 16.5 19.8579 16.5 24C16.5 28.1421 19.8579 31.5 24 31.5Z" stroke="white" stroke-width="2" stroke-miterlimit="10"/>
<path d="M33 6H15C10.0294 6 6 10.0294 6 15V33C6 37.9706 10.0294 42 15 42H33C37.9706 42 42 37.9706 42 33V15C42 10.0294 37.9706 6 33 6Z" stroke="white" stroke-width="2" stroke-linecap="round" stroke-linejoin="round"/>
<path d="M33.75 16.5C34.9926 16.5 36 15.4926 36 14.25C36 13.0074 34.9926 12 33.75 12C32.5074 12 31.5 13.0074 31.5 14.25C31.5 15.4926 32.5074 16.5 33.75 16.5Z" fill="white"/>
</g>
<defs>
<clipPath id="clip0_2088_163">
<rect width="48" height="48" fill="white"/>
</clipPath>
</defs>
</svg>
