<svg width="48" height="48" viewBox="0 0 48 48" fill="none" xmlns="http://www.w3.org/2000/svg">
<g clip-path="url(#clip0_2088_169)">
<path d="M40.5 6H7.5C6.67157 6 6 6.67157 6 7.5V40.5C6 41.3284 6.67157 42 7.5 42H40.5C41.3284 42 42 41.3284 42 40.5V7.5C42 6.67157 41.3284 6 40.5 6Z" stroke="white" stroke-width="2" stroke-linecap="round" stroke-linejoin="round"/>
<path d="M22.5 21V33" stroke="white" stroke-width="2" stroke-linecap="round" stroke-linejoin="round"/>
<path d="M16.5 21V33" stroke="white" stroke-width="2" stroke-linecap="round" stroke-linejoin="round"/>
<path d="M22.5 26.25C22.5 24.8576 23.0531 23.5223 24.0377 22.5377C25.0223 21.5531 26.3576 21 27.75 21C29.1424 21 30.4777 21.5531 31.4623 22.5377C32.4469 23.5223 33 24.8576 33 26.25V33" stroke="white" stroke-width="2" stroke-linecap="round" stroke-linejoin="round"/>
<path d="M16.5 18C17.7426 18 18.75 16.9926 18.75 15.75C18.75 14.5074 17.7426 13.5 16.5 13.5C15.2574 13.5 14.25 14.5074 14.25 15.75C14.25 16.9926 15.2574 18 16.5 18Z" fill="white"/>
</g>
<defs>
<clipPath id="clip0_2088_169">
<rect width="48" height="48" fill="white"/>
</clipPath>
</defs>
</svg>
