<svg width="960" height="480" viewBox="0 0 960 480" fill="none" xmlns="http://www.w3.org/2000/svg">
<rect width="320" height="480" transform="translate(320)" fill="#142850" fill-opacity="0.6"/>
<path d="M415.318 231.905C417.942 229.636 420.006 227.778 421.509 226.329C423.04 224.853 424.311 223.322 425.322 221.737C426.334 220.152 426.839 218.566 426.839 216.981C426.839 215.341 426.443 214.056 425.65 213.127C424.885 212.198 423.669 211.733 422.001 211.733C420.389 211.733 419.131 212.252 418.229 213.291C417.355 214.302 416.89 215.669 416.835 217.391H412.325C412.407 214.275 413.337 211.897 415.113 210.257C416.917 208.59 419.2 207.756 421.96 207.756C424.94 207.756 427.263 208.576 428.93 210.216C430.625 211.856 431.472 214.043 431.472 216.776C431.472 218.744 430.967 220.644 429.955 222.475C428.971 224.279 427.782 225.905 426.388 227.354C425.022 228.775 423.272 230.429 421.14 232.315L419.295 233.955H432.292V237.85H412.366V234.447L415.318 231.905ZM436.398 222.926C436.398 218.197 437.191 214.507 438.776 211.856C440.389 209.177 443.15 207.838 447.058 207.838C450.967 207.838 453.714 209.177 455.299 211.856C456.912 214.507 457.718 218.197 457.718 222.926C457.718 227.709 456.912 231.454 455.299 234.16C453.714 236.839 450.967 238.178 447.058 238.178C443.15 238.178 440.389 236.839 438.776 234.16C437.191 231.454 436.398 227.709 436.398 222.926ZM453.126 222.926C453.126 220.712 452.976 218.84 452.675 217.309C452.402 215.778 451.828 214.535 450.953 213.578C450.079 212.594 448.78 212.102 447.058 212.102C445.336 212.102 444.038 212.594 443.163 213.578C442.289 214.535 441.701 215.778 441.4 217.309C441.127 218.84 440.99 220.712 440.99 222.926C440.99 225.222 441.127 227.149 441.4 228.707C441.674 230.265 442.248 231.522 443.122 232.479C444.024 233.436 445.336 233.914 447.058 233.914C448.78 233.914 450.079 233.436 450.953 232.479C451.855 231.522 452.443 230.265 452.716 228.707C452.99 227.149 453.126 225.222 453.126 222.926ZM465.165 238.547C464.318 238.547 463.607 238.26 463.033 237.686C462.459 237.112 462.172 236.401 462.172 235.554C462.172 234.707 462.459 233.996 463.033 233.422C463.607 232.848 464.318 232.561 465.165 232.561C465.985 232.561 466.682 232.848 467.256 233.422C467.83 233.996 468.117 234.707 468.117 235.554C468.117 236.401 467.83 237.112 467.256 237.686C466.682 238.26 465.985 238.547 465.165 238.547ZM472.554 222.926C472.554 218.197 473.346 214.507 474.932 211.856C476.544 209.177 479.305 207.838 483.214 207.838C487.122 207.838 489.869 209.177 491.455 211.856C493.067 214.507 493.874 218.197 493.874 222.926C493.874 227.709 493.067 231.454 491.455 234.16C489.869 236.839 487.122 238.178 483.214 238.178C479.305 238.178 476.544 236.839 474.932 234.16C473.346 231.454 472.554 227.709 472.554 222.926ZM489.282 222.926C489.282 220.712 489.131 218.84 488.831 217.309C488.557 215.778 487.983 214.535 487.109 213.578C486.234 212.594 484.936 212.102 483.214 212.102C481.492 212.102 480.193 212.594 479.319 213.578C478.444 214.535 477.856 215.778 477.556 217.309C477.282 218.84 477.146 220.712 477.146 222.926C477.146 225.222 477.282 227.149 477.556 228.707C477.829 230.265 478.403 231.522 479.278 232.479C480.18 233.436 481.492 233.914 483.214 233.914C484.936 233.914 486.234 233.436 487.109 232.479C488.011 231.522 488.598 230.265 488.872 228.707C489.145 227.149 489.282 225.222 489.282 222.926ZM498.819 222.926C498.819 218.197 499.612 214.507 501.197 211.856C502.81 209.177 505.571 207.838 509.479 207.838C513.388 207.838 516.135 209.177 517.72 211.856C519.333 214.507 520.139 218.197 520.139 222.926C520.139 227.709 519.333 231.454 517.72 234.16C516.135 236.839 513.388 238.178 509.479 238.178C505.571 238.178 502.81 236.839 501.197 234.16C499.612 231.454 498.819 227.709 498.819 222.926ZM515.547 222.926C515.547 220.712 515.397 218.84 515.096 217.309C514.823 215.778 514.249 214.535 513.374 213.578C512.5 212.594 511.201 212.102 509.479 212.102C507.757 212.102 506.459 212.594 505.584 213.578C504.71 214.535 504.122 215.778 503.821 217.309C503.548 218.84 503.411 220.712 503.411 222.926C503.411 225.222 503.548 227.149 503.821 228.707C504.095 230.265 504.669 231.522 505.543 232.479C506.445 233.436 507.757 233.914 509.479 233.914C511.201 233.914 512.5 233.436 513.374 232.479C514.276 231.522 514.864 230.265 515.137 228.707C515.411 227.149 515.547 225.222 515.547 222.926ZM525.085 222.926C525.085 218.197 525.878 214.507 527.463 211.856C529.076 209.177 531.836 207.838 535.745 207.838C539.654 207.838 542.401 209.177 543.986 211.856C545.599 214.507 546.405 218.197 546.405 222.926C546.405 227.709 545.599 231.454 543.986 234.16C542.401 236.839 539.654 238.178 535.745 238.178C531.836 238.178 529.076 236.839 527.463 234.16C525.878 231.454 525.085 227.709 525.085 222.926ZM541.813 222.926C541.813 220.712 541.663 218.84 541.362 217.309C541.089 215.778 540.515 214.535 539.64 213.578C538.765 212.594 537.467 212.102 535.745 212.102C534.023 212.102 532.725 212.594 531.85 213.578C530.975 214.535 530.388 215.778 530.087 217.309C529.814 218.84 529.677 220.712 529.677 222.926C529.677 225.222 529.814 227.149 530.087 228.707C530.36 230.265 530.934 231.522 531.809 232.479C532.711 233.436 534.023 233.914 535.745 233.914C537.467 233.914 538.765 233.436 539.64 232.479C540.542 231.522 541.13 230.265 541.403 228.707C541.676 227.149 541.813 225.222 541.813 222.926ZM578.739 220.712C578.739 226.917 577.536 231.495 575.131 234.447C572.753 237.399 568.912 238.875 563.61 238.875C561.314 238.875 558.649 238.533 555.615 237.85V228.379L549.506 229.773V226.452L555.615 225.058V221.573L549.342 223.008V219.81L555.615 218.375V209.519H560.412V217.268L567.136 215.71V218.99L560.412 220.507V223.992L566.931 222.516V225.796L560.412 227.272V234.201C561.314 234.392 562.38 234.488 563.61 234.488C567.327 234.488 569.978 233.326 571.564 231.003C573.149 228.68 573.942 225.249 573.942 220.712H578.739Z" fill="white"/>
<g clip-path="url(#clip0_1_44)">
<path d="M492.405 0.15L480.165 20.87L467.595 0H413.945L453.345 65.38L453.145 65.71L503.395 71.23L546.055 0.15H492.405Z" fill="#0C7B93"/>
<path d="M502.425 0.15L480.165 34.2L457.575 0H421.965L461.355 65.38L469.175 65.71H496.775L536.035 0.15H502.425Z" fill="#FF7A2D"/>
<path d="M508.435 0.15L480.165 44.22L449.565 0H429.975L471.375 65.38L469.175 65.71H488.755L528.015 0.15H508.435Z" fill="#FFE15C"/>
<path d="M480.315 58.47C452.525 58.47 429.925 81.08 429.925 108.86C429.925 136.64 452.535 159.26 480.315 159.26C508.095 159.26 530.715 136.65 530.715 108.86C530.715 81.07 508.105 58.47 480.315 58.47Z" fill="#FFD000"/>
<path d="M480.315 148.27C458.585 148.27 440.915 130.59 440.915 108.86C440.915 87.13 458.595 69.46 480.315 69.46C502.035 69.46 519.725 87.14 519.725 108.86C519.725 130.58 502.045 148.27 480.315 148.27Z" fill="#FFC900"/>
<path d="M447.705 130.96C454.795 141.4 466.765 148.28 480.315 148.28C502.045 148.28 519.725 130.6 519.725 108.87C519.725 99.33 516.315 90.58 510.655 83.75L447.715 130.96H447.705Z" fill="#FFE15C"/>
<path d="M480.315 152.68C456.165 152.68 436.505 133.03 436.505 108.87C436.505 84.71 456.155 65.06 480.315 65.06C504.475 65.06 524.125 84.71 524.125 108.87C524.125 133.03 504.475 152.68 480.315 152.68ZM480.315 73.87C461.015 73.87 445.315 89.57 445.315 108.87C445.315 128.17 461.015 143.87 480.315 143.87C499.615 143.87 515.315 128.17 515.315 108.87C515.315 89.57 499.615 73.87 480.315 73.87Z" fill="#FF7A2D"/>
<path d="M474.665 97.7451V93.4811H483.193V123.37H478.478V97.7451H474.665Z" fill="black"/>
</g>
<g clip-path="url(#clip1_1_44)">
<rect width="320" height="300" transform="translate(640 180)" fill="#142850"/>
<path d="M737.285 392.635V388.371H745.813V418.26H741.098V392.635H737.285ZM752.234 402.926C752.234 398.197 753.027 394.507 754.612 391.856C756.225 389.177 758.985 387.838 762.894 387.838C766.803 387.838 769.55 389.177 771.135 391.856C772.748 394.507 773.554 398.197 773.554 402.926C773.554 407.709 772.748 411.454 771.135 414.16C769.55 416.839 766.803 418.178 762.894 418.178C758.985 418.178 756.225 416.839 754.612 414.16C753.027 411.454 752.234 407.709 752.234 402.926ZM768.962 402.926C768.962 400.712 768.812 398.84 768.511 397.309C768.238 395.778 767.664 394.535 766.789 393.578C765.914 392.594 764.616 392.102 762.894 392.102C761.172 392.102 759.874 392.594 758.999 393.578C758.124 394.535 757.537 395.778 757.236 397.309C756.963 398.84 756.826 400.712 756.826 402.926C756.826 405.222 756.963 407.149 757.236 408.707C757.509 410.265 758.083 411.522 758.958 412.479C759.86 413.436 761.172 413.914 762.894 413.914C764.616 413.914 765.914 413.436 766.789 412.479C767.691 411.522 768.279 410.265 768.552 408.707C768.825 407.149 768.962 405.222 768.962 402.926ZM781.001 418.547C780.153 418.547 779.443 418.26 778.869 417.686C778.295 417.112 778.008 416.401 778.008 415.554C778.008 414.707 778.295 413.996 778.869 413.422C779.443 412.848 780.153 412.561 781.001 412.561C781.821 412.561 782.518 412.848 783.092 413.422C783.666 413.996 783.953 414.707 783.953 415.554C783.953 416.401 783.666 417.112 783.092 417.686C782.518 418.26 781.821 418.547 781.001 418.547ZM788.389 402.926C788.389 398.197 789.182 394.507 790.767 391.856C792.38 389.177 795.141 387.838 799.049 387.838C802.958 387.838 805.705 389.177 807.29 391.856C808.903 394.507 809.709 398.197 809.709 402.926C809.709 407.709 808.903 411.454 807.29 414.16C805.705 416.839 802.958 418.178 799.049 418.178C795.141 418.178 792.38 416.839 790.767 414.16C789.182 411.454 788.389 407.709 788.389 402.926ZM805.117 402.926C805.117 400.712 804.967 398.84 804.666 397.309C804.393 395.778 803.819 394.535 802.944 393.578C802.07 392.594 800.771 392.102 799.049 392.102C797.327 392.102 796.029 392.594 795.154 393.578C794.28 394.535 793.692 395.778 793.391 397.309C793.118 398.84 792.981 400.712 792.981 402.926C792.981 405.222 793.118 407.149 793.391 408.707C793.665 410.265 794.239 411.522 795.113 412.479C796.015 413.436 797.327 413.914 799.049 413.914C800.771 413.914 802.07 413.436 802.944 412.479C803.846 411.522 804.434 410.265 804.707 408.707C804.981 407.149 805.117 405.222 805.117 402.926ZM814.655 402.926C814.655 398.197 815.447 394.507 817.033 391.856C818.645 389.177 821.406 387.838 825.315 387.838C829.223 387.838 831.97 389.177 833.556 391.856C835.168 394.507 835.975 398.197 835.975 402.926C835.975 407.709 835.168 411.454 833.556 414.16C831.97 416.839 829.223 418.178 825.315 418.178C821.406 418.178 818.645 416.839 817.033 414.16C815.447 411.454 814.655 407.709 814.655 402.926ZM831.383 402.926C831.383 400.712 831.232 398.84 830.932 397.309C830.658 395.778 830.084 394.535 829.21 393.578C828.335 392.594 827.037 392.102 825.315 392.102C823.593 392.102 822.294 392.594 821.42 393.578C820.545 394.535 819.957 395.778 819.657 397.309C819.383 398.84 819.247 400.712 819.247 402.926C819.247 405.222 819.383 407.149 819.657 408.707C819.93 410.265 820.504 411.522 821.379 412.479C822.281 413.436 823.593 413.914 825.315 413.914C827.037 413.914 828.335 413.436 829.21 412.479C830.112 411.522 830.699 410.265 830.973 408.707C831.246 407.149 831.383 405.222 831.383 402.926ZM840.92 402.926C840.92 398.197 841.713 394.507 843.298 391.856C844.911 389.177 847.672 387.838 851.58 387.838C855.489 387.838 858.236 389.177 859.821 391.856C861.434 394.507 862.24 398.197 862.24 402.926C862.24 407.709 861.434 411.454 859.821 414.16C858.236 416.839 855.489 418.178 851.58 418.178C847.672 418.178 844.911 416.839 843.298 414.16C841.713 411.454 840.92 407.709 840.92 402.926ZM857.648 402.926C857.648 400.712 857.498 398.84 857.197 397.309C856.924 395.778 856.35 394.535 855.475 393.578C854.601 392.594 853.302 392.102 851.58 392.102C849.858 392.102 848.56 392.594 847.685 393.578C846.811 394.535 846.223 395.778 845.922 397.309C845.649 398.84 845.512 400.712 845.512 402.926C845.512 405.222 845.649 407.149 845.922 408.707C846.196 410.265 846.77 411.522 847.644 412.479C848.546 413.436 849.858 413.914 851.58 413.914C853.302 413.914 854.601 413.436 855.475 412.479C856.377 411.522 856.965 410.265 857.238 408.707C857.512 407.149 857.648 405.222 857.648 402.926ZM894.574 400.712C894.574 406.917 893.371 411.495 890.966 414.447C888.588 417.399 884.748 418.875 879.445 418.875C877.149 418.875 874.484 418.533 871.45 417.85V408.379L865.341 409.773V406.452L871.45 405.058V401.573L865.177 403.008V399.81L871.45 398.375V389.519H876.247V397.268L882.971 395.71V398.99L876.247 400.507V403.992L882.766 402.516V405.796L876.247 407.272V414.201C877.149 414.392 878.215 414.488 879.445 414.488C883.162 414.488 885.814 413.326 887.399 411.003C888.984 408.68 889.777 405.249 889.777 400.712H894.574Z" fill="white"/>
<g clip-path="url(#clip2_1_44)">
<path d="M812.405 170.89L800.165 191.61L787.595 170.74H733.945L773.345 236.12L773.145 236.45L823.395 241.97L866.055 170.89H812.405Z" fill="#0C7B93"/>
<path d="M822.425 170.89L800.165 204.94L777.575 170.74H741.965L781.355 236.12L789.175 236.45H816.775L856.035 170.89H822.425Z" fill="#5C2C10"/>
<path d="M828.435 170.89L800.165 214.96L769.565 170.74H749.975L791.375 236.12L789.175 236.45H808.755L848.015 170.89H828.435Z" fill="#FCA374"/>
<path d="M800.315 229.21C772.525 229.21 749.925 251.82 749.925 279.6C749.925 307.38 772.535 330 800.315 330C828.095 330 850.715 307.39 850.715 279.6C850.715 251.81 828.105 229.21 800.315 229.21Z" fill="#915120"/>
<path d="M800.315 319.01C778.585 319.01 760.915 301.33 760.915 279.6C760.915 257.87 778.595 240.2 800.315 240.2C822.035 240.2 839.725 257.88 839.725 279.6C839.725 301.32 822.045 319.01 800.315 319.01Z" fill="#915120"/>
<path d="M767.705 301.7C774.795 312.14 786.765 319.02 800.315 319.02C822.045 319.02 839.725 301.34 839.725 279.61C839.725 270.07 836.315 261.32 830.655 254.49L767.715 301.7H767.705Z" fill="#FCA374"/>
<path d="M800.315 323.42C776.165 323.42 756.505 303.77 756.505 279.61C756.505 255.45 776.155 235.8 800.315 235.8C824.475 235.8 844.125 255.45 844.125 279.61C844.125 303.77 824.475 323.42 800.315 323.42ZM800.315 244.61C781.015 244.61 765.315 260.31 765.315 279.61C765.315 298.91 781.015 314.61 800.315 314.61C819.615 314.61 835.315 298.91 835.315 279.61C835.315 260.31 819.615 244.61 800.315 244.61Z" fill="#5C2C10"/>
</g>
<path d="M790.198 271.601C790.362 269.059 791.332 267.077 793.109 265.656C794.913 264.235 797.209 263.524 799.997 263.524C801.91 263.524 803.564 263.866 804.958 264.549C806.352 265.232 807.404 266.162 808.115 267.337C808.826 268.512 809.181 269.838 809.181 271.314C809.181 273.009 808.73 274.457 807.828 275.66C806.926 276.863 805.846 277.669 804.589 278.079V278.243C806.202 278.735 807.459 279.637 808.361 280.949C809.263 282.234 809.714 283.887 809.714 285.91C809.714 287.523 809.345 288.958 808.607 290.215C807.869 291.472 806.776 292.47 805.327 293.208C803.878 293.919 802.143 294.274 800.12 294.274C797.168 294.274 794.735 293.522 792.822 292.019C790.936 290.488 789.925 288.302 789.788 285.459H794.298C794.407 286.908 794.968 288.097 795.979 289.026C796.99 289.928 798.357 290.379 800.079 290.379C801.746 290.379 803.031 289.928 803.933 289.026C804.835 288.097 805.286 286.908 805.286 285.459C805.286 283.546 804.671 282.193 803.441 281.4C802.238 280.58 800.38 280.17 797.865 280.17H796.799V276.316H797.906C800.12 276.289 801.801 275.92 802.949 275.209C804.124 274.498 804.712 273.378 804.712 271.847C804.712 270.535 804.288 269.496 803.441 268.731C802.594 267.938 801.391 267.542 799.833 267.542C798.302 267.542 797.113 267.938 796.266 268.731C795.419 269.496 794.913 270.453 794.749 271.601H790.198Z" fill="black"/>
</g>
<rect width="320" height="380" transform="translate(0 100)" fill="#142850" fill-opacity="0.8"/>
<path d="M97.325 312.635V308.371H105.853V338.26H101.138V312.635H97.325ZM131.544 312.389H117.809V320.548C118.383 319.783 119.23 319.14 120.351 318.621C121.499 318.102 122.715 317.842 124 317.842C126.296 317.842 128.155 318.334 129.576 319.318C131.025 320.302 132.05 321.546 132.651 323.049C133.28 324.552 133.594 326.138 133.594 327.805C133.594 329.828 133.198 331.632 132.405 333.217C131.64 334.775 130.478 336.005 128.92 336.907C127.389 337.809 125.503 338.26 123.262 338.26C120.283 338.26 117.891 337.522 116.087 336.046C114.283 334.57 113.203 332.616 112.848 330.183H117.399C117.7 331.468 118.369 332.493 119.408 333.258C120.447 333.996 121.745 334.365 123.303 334.365C125.244 334.365 126.692 333.777 127.649 332.602C128.633 331.427 129.125 329.869 129.125 327.928C129.125 325.96 128.633 324.457 127.649 323.418C126.665 322.352 125.216 321.819 123.303 321.819C121.964 321.819 120.829 322.161 119.9 322.844C118.998 323.5 118.342 324.402 117.932 325.55H113.504V308.289H131.544V312.389ZM140.961 338.547C140.113 338.547 139.403 338.26 138.829 337.686C138.255 337.112 137.968 336.401 137.968 335.554C137.968 334.707 138.255 333.996 138.829 333.422C139.403 332.848 140.113 332.561 140.961 332.561C141.781 332.561 142.478 332.848 143.052 333.422C143.626 333.996 143.913 334.707 143.913 335.554C143.913 336.401 143.626 337.112 143.052 337.686C142.478 338.26 141.781 338.547 140.961 338.547ZM148.349 322.926C148.349 318.197 149.142 314.507 150.727 311.856C152.34 309.177 155.1 307.838 159.009 307.838C162.918 307.838 165.665 309.177 167.25 311.856C168.863 314.507 169.669 318.197 169.669 322.926C169.669 327.709 168.863 331.454 167.25 334.16C165.665 336.839 162.918 338.178 159.009 338.178C155.1 338.178 152.34 336.839 150.727 334.16C149.142 331.454 148.349 327.709 148.349 322.926ZM165.077 322.926C165.077 320.712 164.927 318.84 164.626 317.309C164.353 315.778 163.779 314.535 162.904 313.578C162.029 312.594 160.731 312.102 159.009 312.102C157.287 312.102 155.989 312.594 155.114 313.578C154.239 314.535 153.652 315.778 153.351 317.309C153.078 318.84 152.941 320.712 152.941 322.926C152.941 325.222 153.078 327.149 153.351 328.707C153.624 330.265 154.198 331.522 155.073 332.479C155.975 333.436 157.287 333.914 159.009 333.914C160.731 333.914 162.029 333.436 162.904 332.479C163.806 331.522 164.394 330.265 164.667 328.707C164.94 327.149 165.077 325.222 165.077 322.926ZM174.615 322.926C174.615 318.197 175.407 314.507 176.993 311.856C178.605 309.177 181.366 307.838 185.275 307.838C189.183 307.838 191.93 309.177 193.516 311.856C195.128 314.507 195.935 318.197 195.935 322.926C195.935 327.709 195.128 331.454 193.516 334.16C191.93 336.839 189.183 338.178 185.275 338.178C181.366 338.178 178.605 336.839 176.993 334.16C175.407 331.454 174.615 327.709 174.615 322.926ZM191.343 322.926C191.343 320.712 191.192 318.84 190.892 317.309C190.618 315.778 190.044 314.535 189.17 313.578C188.295 312.594 186.997 312.102 185.275 312.102C183.553 312.102 182.254 312.594 181.38 313.578C180.505 314.535 179.917 315.778 179.617 317.309C179.343 318.84 179.207 320.712 179.207 322.926C179.207 325.222 179.343 327.149 179.617 328.707C179.89 330.265 180.464 331.522 181.339 332.479C182.241 333.436 183.553 333.914 185.275 333.914C186.997 333.914 188.295 333.436 189.17 332.479C190.072 331.522 190.659 330.265 190.933 328.707C191.206 327.149 191.343 325.222 191.343 322.926ZM200.88 322.926C200.88 318.197 201.673 314.507 203.258 311.856C204.871 309.177 207.632 307.838 211.54 307.838C215.449 307.838 218.196 309.177 219.781 311.856C221.394 314.507 222.2 318.197 222.2 322.926C222.2 327.709 221.394 331.454 219.781 334.16C218.196 336.839 215.449 338.178 211.54 338.178C207.632 338.178 204.871 336.839 203.258 334.16C201.673 331.454 200.88 327.709 200.88 322.926ZM217.608 322.926C217.608 320.712 217.458 318.84 217.157 317.309C216.884 315.778 216.31 314.535 215.435 313.578C214.561 312.594 213.262 312.102 211.54 312.102C209.818 312.102 208.52 312.594 207.645 313.578C206.771 314.535 206.183 315.778 205.882 317.309C205.609 318.84 205.472 320.712 205.472 322.926C205.472 325.222 205.609 327.149 205.882 328.707C206.156 330.265 206.73 331.522 207.604 332.479C208.506 333.436 209.818 333.914 211.54 333.914C213.262 333.914 214.561 333.436 215.435 332.479C216.337 331.522 216.925 330.265 217.198 328.707C217.472 327.149 217.608 325.222 217.608 322.926ZM254.534 320.712C254.534 326.917 253.331 331.495 250.926 334.447C248.548 337.399 244.708 338.875 239.405 338.875C237.109 338.875 234.444 338.533 231.41 337.85V328.379L225.301 329.773V326.452L231.41 325.058V321.573L225.137 323.008V319.81L231.41 318.375V309.519H236.207V317.268L242.931 315.71V318.99L236.207 320.507V323.992L242.726 322.516V325.796L236.207 327.272V334.201C237.109 334.392 238.175 334.488 239.405 334.488C243.122 334.488 245.774 333.326 247.359 331.003C248.944 328.68 249.737 325.249 249.737 320.712H254.534Z" fill="white"/>
<g clip-path="url(#clip3_1_44)">
<path d="M172.405 100.15L160.165 120.87L147.595 100H93.945L133.345 165.38L133.145 165.71L183.395 171.23L226.055 100.15H172.405Z" fill="#0C7B93"/>
<path d="M182.425 100.15L160.165 134.2L137.575 100H101.965L141.355 165.38L149.175 165.71H176.775L216.035 100.15H182.425Z" fill="#4E4E4E"/>
<path d="M188.435 100.15L160.165 144.22L129.565 100H109.975L151.375 165.38L149.175 165.71H168.755L208.015 100.15H188.435Z" fill="#BEBEBE"/>
<path d="M160.315 158.47C132.525 158.47 109.925 181.08 109.925 208.86C109.925 236.64 132.535 259.26 160.315 259.26C188.095 259.26 210.715 236.65 210.715 208.86C210.715 181.07 188.105 158.47 160.315 158.47Z" fill="#7E7E7E" fill-opacity="0.933333"/>
<path d="M160.315 248.27C138.585 248.27 120.915 230.59 120.915 208.86C120.915 187.13 138.595 169.46 160.315 169.46C182.035 169.46 199.725 187.14 199.725 208.86C199.725 230.58 182.045 248.27 160.315 248.27Z" fill="#7E7E7E"/>
<path d="M127.705 230.96C134.795 241.4 146.765 248.28 160.315 248.28C182.045 248.28 199.725 230.6 199.725 208.87C199.725 199.33 196.315 190.58 190.655 183.75L127.715 230.96H127.705Z" fill="#BEBEBE"/>
<path d="M160.315 252.68C136.165 252.68 116.505 233.03 116.505 208.87C116.505 184.71 136.155 165.06 160.315 165.06C184.475 165.06 204.125 184.71 204.125 208.87C204.125 233.03 184.475 252.68 160.315 252.68ZM160.315 173.87C141.015 173.87 125.315 189.57 125.315 208.87C125.315 228.17 141.015 243.87 160.315 243.87C179.615 243.87 195.315 228.17 195.315 208.87C195.315 189.57 179.615 173.87 160.315 173.87Z" fill="#4E4E4E"/>
<path d="M153.363 217.015C155.987 214.746 158.051 212.888 159.554 211.439C161.085 209.963 162.356 208.432 163.367 206.847C164.378 205.262 164.884 203.676 164.884 202.091C164.884 200.451 164.488 199.166 163.695 198.237C162.93 197.308 161.713 196.843 160.046 196.843C158.433 196.843 157.176 197.362 156.274 198.401C155.399 199.412 154.935 200.779 154.88 202.501H150.37C150.452 199.385 151.381 197.007 153.158 195.367C154.962 193.7 157.244 192.866 160.005 192.866C162.984 192.866 165.308 193.686 166.975 195.326C168.67 196.966 169.517 199.153 169.517 201.886C169.517 203.854 169.011 205.754 168 207.585C167.016 209.389 165.827 211.015 164.433 212.464C163.066 213.885 161.317 215.539 159.185 217.425L157.34 219.065H170.337V222.96H150.411V219.557L153.363 217.015Z" fill="black"/>
</g>
<defs>
<clipPath id="clip0_1_44">
<rect width="132.11" height="159.26" fill="white" transform="translate(413.945)"/>
</clipPath>
<clipPath id="clip1_1_44">
<rect width="320" height="300" fill="white" transform="translate(640 180)"/>
</clipPath>
<clipPath id="clip2_1_44">
<rect width="132.11" height="159.26" fill="white" transform="translate(733.945 170.74)"/>
</clipPath>
<clipPath id="clip3_1_44">
<rect width="132.11" height="159.26" fill="white" transform="translate(93.945 100)"/>
</clipPath>
</defs>
</svg>
