<svg width="48" height="48" viewBox="0 0 48 48" fill="none" xmlns="http://www.w3.org/2000/svg">
<g clip-path="url(#clip0_2088_183)">
<path d="M30 24L21 18V30L30 24Z" stroke="white" stroke-width="2" stroke-linecap="round" stroke-linejoin="round"/>
<path d="M4.5 24.0002C4.5 29.6083 5.07562 32.897 5.51437 34.5883C5.6304 35.0483 5.85387 35.4743 6.16645 35.8312C6.47902 36.1881 6.87179 36.4658 7.3125 36.6414C13.5975 39.0658 24 39.0002 24 39.0002C24 39.0002 34.4025 39.0658 40.6875 36.6414C41.1296 36.4667 41.5239 36.1895 41.8378 35.8325C42.1517 35.4756 42.3763 35.0491 42.4931 34.5883C42.9319 32.9008 43.5075 29.6083 43.5075 24.0002C43.5075 18.392 42.9319 15.1033 42.4931 13.412C42.3777 12.9495 42.1537 12.5212 41.8397 12.1625C41.5257 11.8038 41.1307 11.5251 40.6875 11.3495C34.4025 8.93455 24 9.00017 24 9.00017C24 9.00017 13.5975 8.93455 7.3125 11.3589C6.86931 11.5345 6.47435 11.8132 6.16034 12.1719C5.84634 12.5306 5.62233 12.9589 5.50688 13.4214C5.07563 15.1014 4.5 18.392 4.5 24.0002Z" stroke="white" stroke-width="2" stroke-linecap="round" stroke-linejoin="round"/>
</g>
<defs>
<clipPath id="clip0_2088_183">
<rect width="48" height="48" fill="white"/>
</clipPath>
</defs>
</svg>
